<?xml version="1.0" encoding="UTF-8"?>
<svg id="Layer_2" data-name="Layer 2" xmlns="http://www.w3.org/2000/svg" viewBox="0 0 272.1 223.89">
  <defs>
    <style>
      .cls-1 {
        fill: #6257e3;
        stroke-width: 0px;
      }
    </style>
  </defs>
  <g id="Layer_1-2" data-name="Layer 1">
    <g>
      <polygon class="cls-1" points="82.01 73.12 95.09 71.14 85.21 51.27 82.01 73.12"/>
      <path class="cls-1" d="m271.99,49.34c-2.44-25.53-38.54-44.61-91.98-48.6-16-1.19-32.75-.94-49.8.75C55.26,8.93-3.1,42.49.13,76.31c2.44,25.53,38.54,44.61,91.98,48.6h0c1.82.14,3.68.19,5.52.28l-8.57,23.05,13.65,34.1,25.2,4.16-7.33,11.09,9.24.25-13.63,24.43,1.76,1.62,44.77-31.39-9.44-.46,3.63-3.52,46.46,3.51,1.08-1.06c3.3.22,6.61.44,9.91.66,9.23-9.15,18.46-18.3,27.69-27.45.63-12.44,1.25-24.88,1.88-37.32-6.02-8.26-12.05-16.52-18.07-24.78,29.8-14.31,47.95-33.48,46.11-52.74h.02ZM174.07,5.09c3.22.16,6.5.36,9.75.6l19.29,13.4,5.1,24-9.85,20.05,19.56,35.97c-2.25-.15-4.51-.3-6.76-.45l-1.28-1.03-9.21-.67-10.88-28.68-10.24,6.57,4.97,20.93-17.88-1.29-4.99-34.39c2.78,1.84,5.93,3.08,9.32,3.56.51.07,1.02.13,1.53.17,5.53.41,10.95-1.19,15.43-4.6,10.09-7.67,12.13-22.2,4.55-32.39-3.67-4.93-9.02-8.12-15.07-8.98-6.03-.86-12.07.71-16.96,4.43-1.43,1.08-2.67,2.32-3.77,3.65l-3.1-21.38c6.82,0,13.7.19,20.49.53h0Zm-1.08,30.45c-1.79-2.41-4.41-3.97-7.37-4.39-2.81-.41-5.58.3-7.9,1.92l-.18-1.26c1.25-2.4,3.02-4.57,5.31-6.31,3.7-2.81,8.18-4.14,12.74-3.8.42.03.85.08,1.27.14,5,.71,9.42,3.35,12.45,7.42h0c6.26,8.42,4.57,20.42-3.77,26.76-4.04,3.07-9,4.37-14.01,3.66-4.13-.59-7.85-2.51-10.74-5.46l-.17-1.16c.6.21,1.2.38,1.84.47.25.04.5.06.75.08,2.7.2,5.35-.58,7.54-2.25,2.39-1.82,3.94-4.46,4.36-7.45s-.33-5.97-2.13-8.38h0Zm-40.76,15.94c-1.79-2.41-4.41-3.97-7.37-4.39-2.97-.42-5.9.35-8.29,2.17-.21.16-.38.37-.58.54,1.24-3.17,3.31-6.06,6.2-8.26,3.81-2.9,8.35-4.12,12.76-3.79,5.25.39,10.3,2.98,13.7,7.55,3.03,4.08,4.31,9.1,3.6,14.16-.71,5.05-3.33,9.53-7.36,12.6-8.27,6.29-20.02,4.67-26.31-3.58.99.46,2.03.83,3.14.99.25.04.5.06.75.08,2.7.2,5.36-.58,7.54-2.25,2.39-1.82,3.94-4.46,4.36-7.45s-.33-5.97-2.13-8.38h0Zm-.4,28.38c5.34.4,10.84-1.08,15.44-4.58,4.24-3.22,7.17-7.73,8.44-12.86l1.01,6.94-4.05,24.12-25.92-1.88-4.95,3.13-4.87-22c4.01,4.28,9.36,6.71,14.9,7.12h0ZM112.85,8.51c4.75-.79,9.58-1.43,14.37-1.9l24.13,34.77c0,.33.02.66.04.98-7.67-9.71-21.7-11.57-31.6-4.03-3.9,2.96-6.58,6.96-7.98,11.32l-8.7-39.28c3.23-.7,6.5-1.32,9.74-1.86Zm-63.71,104.18c-20.87-6.74-38.34-19.01-42.47-29.84-1.36-3.58-1.65-7.26-1.65-7.3-.42-5.7,1.29-10.12,2.01-12,4.25-11.03,16.69-20.54,19.14-22.34,11.89-8.71,25.47-15.67,40.39-20.7l-.91,25.48c-4.35,1.59-9.73,3.15-14.94,4.65-5.57,1.61-11.32,3.27-15.89,5l-.92.35,4.44,33.93.69.26c3.95,1.5,8.97,3.1,13.83,4.65,4.5,1.43,9.14,2.91,12.9,4.3l-.27,17.58c-5.56-.96-11.05-2.31-16.34-4.01h0Zm45.94-27.02l-11.66,1.51.76,31.73-14.14-1.53,2.05-98.57c3.12-1.18,6.31-2.23,9.5-3.13,3.62-1.02,7.33-1.88,11.05-2.55l22.21,86-6.92,4.37-5.1,8.85-7.75-26.69h0Zm130.52,29.96l4.95,10.36-.68,34.11-28.04,27.54-46.45-3.51-12.08,11.7,6.82.33-23.82,16.71,10.66-19.1-8.6-.23,6.73-10.18-29.33-4.84-12.15-30.34,8.45-22.76,2.56-6.88.87-2.35,5.55-9.61,4.92-3.11,6.83-4.32,5.04-3.19,24.14,1.75,15.31,1.11,18.28,1.32,16.78,1.22,5.93.43,2.28,1.82,4.21,3.37,10.83,8.66h.01Zm-1-18.73l-19-88.33c9.14.9,17.75,3.02,25.64,6.31,2.48,1.04,5.72,2.84,11.07,5.82,2.16,1.2,4.65,2.59,7.57,4.19,1.37.75,2.7,1.58,3.98,2.48l-25.78,3.1,5.2,20.09,30.85-12.27c.79,1.16,2.26,3.46,2.91,5.53.49,1.57.69,3.72.77,4.94l-35.11,10.86,3.79,15.84,28.86-10.83c-.53,1-1.11,2.06-1.61,2.86-1.28,2.05-2.72,4.02-4.2,5.76-5.47,5.2-11.42,9.94-17.7,14.08-5.48,3.62-11.28,6.83-17.25,9.57h.01Z"/>
      <path class="cls-1" d="m144.61,133.28c2.09.11,4.55-.42,6.9-1.55,4.8-2.14,7.38-5.56,7.84-9.83.17-1.59.07-3.3-.35-5.12-1.27-5.26-4.03-9.37-8.3-11.55-2.96-1.51-6.64-2.1-11.09-1.46-5.26.88-10.25,3.2-14.45,6.14-2.34,1.64-4.42,3.46-6.17,5.35-1.69,1.82-3.06,3.69-4.02,5.49-.45.84-.84,1.67-1.1,2.47-.25.79-.4,1.58-.48,2.38-.49,5.2,2.71,10.52,8.75,15.47,1.73,1.38,3.48,2.5,5.08,3.84,3.49,2.72,6.4,6.06,7.72,8.44.15.46,0,.98-.57.99-.58.12-1.16-.19-1.45-.67-1.34-2.54-6.73-8.86-10.56-9.3-5.5-.5-11.45,4.31-7.14,12.56,3.63,7.37,12.59,14.16,22.14,16.4,11.7,2.74,18.22-5.82,18.92-15.44.84-12.84-12.69-20.88-19.04-25.96-2.4-2.32-3.99-4.92-4.76-7.02.76-.05,1.53-.12,2.3-.18,1.36,3.24,4.63,8.22,9.84,8.56h0Z"/>
      <path class="cls-1" d="m197.15,113.21c-2.94-1.96-6.18-3.63-9.66-4.9-.28-.1-.54-.22-.82-.32-6.56-1.37-12.39,1.57-17.08,6.84-1.59,1.79-3.05,3.82-4.36,6.08-11.53,19.93-11.33,55.28,12.67,55.05,15.18-2.29,33.28-18.65,35.41-31.89,2.63-10.41-4.33-22.97-16.17-30.85h.01Zm-7.9,13.6c-.71,8.11-2.32,18.92-4.53,28.57-.07.55-.71.87-1.3.86-.58-.12-1.12-.46-.92-.9,2.02-9.85,3.8-20.78,4.56-28.97.05-.55.1-1.09.15-1.64,0-.44.58-.68,1.16-.59s1.16.63,1.02,1.04c-.05.54-.09,1.08-.14,1.62h0Z"/>
    </g>
  </g>
</svg>